<?xml version="1.0" encoding="UTF-8" standalone="no"?>
<!-- Created with Inkscape (http://www.inkscape.org/) -->

<svg
   xmlns:dc="http://purl.org/dc/elements/1.1/"
   xmlns:cc="http://creativecommons.org/ns#"
   xmlns:rdf="http://www.w3.org/1999/02/22-rdf-syntax-ns#"
   xmlns:svg="http://www.w3.org/2000/svg"
   xmlns="http://www.w3.org/2000/svg"
   version="1.1"
   width="512"
   height="512"
   id="svg2"
   xml:space="preserve"><metadata
     id="metadata8"><rdf:RDF><cc:Work
         rdf:about=""><dc:format>image/svg+xml</dc:format><dc:type
           rdf:resource="http://purl.org/dc/dcmitype/StillImage" /><dc:title></dc:title></cc:Work></rdf:RDF></metadata><defs
     id="defs6"><clipPath
       id="clipPath16"><path
         d="M 0,792 612,792 612,0 0,0 0,792 z"
         id="path18" /></clipPath></defs><g
     transform="matrix(1.25,0,0,-1.25,0,512)"
     id="g10"><g
       transform="matrix(6.0924126,0,0,6.0924126,634.18593,-4492.8038)"
       id="g3438"><g
         transform="translate(-47.644706,795.21168)"
         id="g20"><path
           d="m 0,0 c -0.639,-0.683 -1.692,-2.175 -2.451,-3.288 0.219,-0.738 -0.84,-4.544 -1.677,-5.938 -0.904,-1.504 -2.367,-1.726 -3.443,-1.079 -0.158,0.095 -0.313,0.219 -0.463,0.356 -3.145,-3.502 -7.405,-8.235 -11.318,-12.54 0.361,0.171 0.803,0.276 1.362,0.273 1.613,-0.008 5.421,-2.001 6.423,-2.835 0.705,0.082 1.347,0.176 1.812,0.285 1.955,0.456 3.685,0.705 3.685,0.705 0,0 -2.788,-0.873 -5.286,-1.422 -0.36,-0.78 -3.401,-3.207 -6.655,-1.548 -1.656,0.843 -2.541,1.088 -2.535,2.419 0.002,0.355 0.057,0.689 0.166,0.992 -1.33,-1.46 -2.597,-2.845 -3.748,-4.096 0.277,0.075 0.583,0.126 0.946,0.124 1.626,-0.007 5.489,-2.036 6.452,-2.857 1.437,0.219 2.894,0.481 3.797,0.758 2.301,0.702 4.327,1.131 4.327,1.131 0,0 -5.01,-1.939 -8.179,-2.635 -0.844,-0.96 -3.547,-2.676 -6.418,-1.213 -1.656,0.844 -2.54,1.09 -2.534,2.419 10e-4,0.208 0.026,0.407 0.062,0.6 -1.657,-1.783 -2.927,-3.119 -3.545,-3.706 -0.242,-0.23 -0.528,-0.527 -0.843,-0.869 0.43,0.414 1.074,0.672 2.001,0.668 1.849,-0.008 6.429,-2.487 6.984,-3.189 1.381,0.213 2.759,0.466 3.627,0.732 2.301,0.702 4.326,1.131 4.326,1.131 0,0 -5.228,-2.024 -8.379,-2.679 -1.063,-1.029 -3.741,-2.524 -6.579,-1.078 -1.748,0.891 -2.682,1.15 -2.675,2.553 0.003,0.653 0.171,1.241 0.537,1.689 -1.087,-1.197 -2.525,-2.944 -4.06,-4.875 0.355,0.126 0.774,0.197 1.272,0.195 1.762,-0.009 5.874,-2.146 7.072,-3.1 1.342,0.21 2.67,0.457 3.514,0.715 2.301,0.702 4.326,1.131 4.326,1.131 0,0 -4.448,-1.721 -7.613,-2.503 -0.625,-0.97 -3.862,-3.357 -7.322,-1.595 -1.84,0.938 -2.822,1.211 -2.815,2.688 0.001,0.182 0.014,0.359 0.038,0.53 -3.891,-4.984 -7.831,-10.323 -7.831,-10.323 l -1.842,0.853 c 0,0 4.623,5.884 8.498,10.458 -0.264,-0.081 -0.543,-0.138 -0.84,-0.154 -1.475,-0.083 -1.798,0.884 -2.829,2.673 -1.905,3.304 0.204,6.608 1.167,7.363 0.599,3.204 2.05,7.72 2.05,7.72 0,0 -0.31,-2.047 -0.877,-4.385 -0.204,-0.836 -0.369,-2.131 -0.499,-3.449 0.991,-1.085 3.4,-5.167 3.501,-6.95 0.02,-0.351 -0.009,-0.654 -0.058,-0.936 1.079,1.244 1.911,2.194 3.226,3.612 -0.159,-0.031 -0.323,-0.052 -0.493,-0.062 -1.401,-0.078 -1.708,0.84 -2.688,2.54 -1.556,2.699 -0.293,5.396 0.673,6.556 0.471,3.185 2.188,8.522 2.188,8.522 0,0 -0.311,-2.046 -0.878,-4.384 -0.21,-0.862 -0.38,-2.212 -0.511,-3.572 0.62,-0.275 3.496,-4.934 3.603,-6.837 0.017,-0.289 -0.001,-0.545 -0.034,-0.785 0.996,1.05 2.231,2.337 3.816,3.979 -0.314,-0.143 -0.667,-0.228 -1.049,-0.25 -1.328,-0.073 -1.618,0.796 -2.547,2.406 -1.711,2.97 0.179,5.939 1.047,6.625 0.586,3.209 2.073,7.832 2.073,7.832 0,0 -0.311,-2.046 -0.878,-4.384 -0.212,-0.874 -0.384,-2.248 -0.516,-3.627 0.928,-1.077 2.995,-4.611 3.083,-6.176 0.032,-0.564 -0.053,-1.015 -0.208,-1.386 1.265,1.308 2.731,2.821 4.447,4.588 -0.381,-0.265 -0.857,-0.405 -1.381,-0.434 -1.327,-0.075 -1.618,0.796 -2.547,2.405 -1.906,3.309 0.652,6.608 1.293,6.757 0.406,2.478 1.082,5.177 1.082,5.177 0,0 -0.147,-1.741 -0.489,-3.72 -0.079,-0.453 -0.134,-1.072 -0.174,-1.752 0.921,-1.056 3.009,-4.618 3.097,-6.192 0.043,-0.755 -0.111,-1.318 -0.39,-1.735 3.182,3.276 7.179,7.384 12.288,12.634 -0.756,0.82 -1.232,2.118 -0.524,3.298 0.752,1.251 4.281,2.821 5.68,3.203 0.254,0.331 0.575,0.746 0.997,1.288 1.344,1.728 4.042,4.219 4.042,4.219 C 1.959,2.264 1.084,1.159 0,0 m -2.453,-19.5 c 0,0 -1.997,-0.542 -4.07,-0.961 -0.358,-0.779 -3.4,-3.208 -6.656,-1.549 -1.656,0.844 -2.54,1.09 -2.534,2.419 0.005,1.33 0.696,2.405 2.554,2.397 1.687,-0.007 5.761,-2.181 6.534,-2.937 0.259,0.031 0.498,0.066 0.697,0.104 1.841,0.355 3.475,0.527 3.475,0.527 m 0.012,4.066 c 0.036,-0.521 -3.027,-3.272 -6.321,-1.594 -1.564,0.796 -2.399,1.028 -2.393,2.284 0.006,1.256 0.658,2.271 2.413,2.264 1.524,-0.008 5.121,-1.89 6.067,-2.678 0.315,0.01 0.6,0.026 0.827,0.052 1.577,0.177 2.985,0.22 2.985,0.22 0,0 -1.767,-0.332 -3.578,-0.548 m -16.486,6.356 c 0.296,2.043 0.701,3.977 0.701,3.977 0,0 -0.076,-1.642 -0.323,-3.501 -0.024,-0.177 -0.042,-0.388 -0.057,-0.612 0.829,-0.817 3.14,-4.682 3.234,-6.339 0.104,-1.856 -0.934,-2.601 -2.262,-2.676 -1.327,-0.075 -1.619,0.795 -2.547,2.405 -1.87,3.246 0.556,6.483 1.254,6.746 m 4.753,4.35 c 10e-4,0 0.003,-0.001 0.004,-0.001 0.112,1.789 0.334,3.516 0.334,3.516 0,0 0.038,-1.409 -0.048,-2.994 -0.011,-0.207 -0.012,-0.459 -0.006,-0.738 0.834,-0.9 2.904,-4.401 2.99,-5.923 0.098,-1.752 -0.883,-2.456 -2.135,-2.526 -1.255,-0.07 -1.529,0.751 -2.406,2.271 -1.848,3.205 0.746,6.408 1.267,6.395 m 20.206,10.882 -56.803,0 c -0.994,0 -1.799,-0.805 -1.799,-1.8 l 0,-56.802 c 0,-0.994 0.805,-1.8 1.799,-1.8 l 56.803,0 c 0.994,0 1.801,0.806 1.801,1.8 l 0,56.802 c 0,0.995 -0.807,1.8 -1.801,1.8"
           id="path22"
           style="fill:#d1743d;fill-opacity:1;fill-rule:nonzero;stroke:none" /></g></g><g
       transform="translate(35.575994,687.21168)"
       id="g24"><path
         d="m 0,0 c -0.639,-0.683 -1.691,-2.175 -2.451,-3.288 0.219,-0.738 -0.84,-4.543 -1.678,-5.938 -0.902,-1.504 -2.365,-1.726 -3.441,-1.08 -0.159,0.096 -0.313,0.22 -0.463,0.358 -3.145,-3.503 -7.406,-8.236 -11.319,-12.541 0.362,0.171 0.803,0.275 1.362,0.273 1.613,-0.008 5.422,-2.001 6.424,-2.835 0.705,0.081 1.347,0.176 1.81,0.284 1.957,0.457 3.686,0.705 3.686,0.705 0,0 -2.787,-0.873 -5.285,-1.421 -0.36,-0.78 -3.401,-3.207 -6.657,-1.548 -1.656,0.843 -2.539,1.089 -2.533,2.419 0.002,0.355 0.057,0.689 0.164,0.992 -1.328,-1.46 -2.596,-2.846 -3.748,-4.096 0.277,0.075 0.584,0.125 0.947,0.124 1.627,-0.007 5.489,-2.036 6.452,-2.857 1.437,0.219 2.894,0.481 3.798,0.758 2.301,0.702 4.327,1.131 4.327,1.131 0,0 -5.01,-1.939 -8.18,-2.634 -0.844,-0.961 -3.547,-2.677 -6.418,-1.213 -1.656,0.844 -2.539,1.089 -2.533,2.418 0,0.209 0.025,0.407 0.06,0.599 -1.656,-1.783 -2.926,-3.118 -3.543,-3.705 -0.242,-0.23 -0.529,-0.527 -0.844,-0.869 0.43,0.414 1.075,0.672 2.002,0.668 1.848,-0.008 6.428,-2.487 6.983,-3.189 1.381,0.213 2.76,0.466 3.627,0.732 2.301,0.701 4.326,1.131 4.326,1.131 0,0 -5.227,-2.024 -8.379,-2.68 -1.062,-1.028 -3.74,-2.523 -6.578,-1.077 -1.748,0.892 -2.684,1.15 -2.676,2.554 0.002,0.652 0.17,1.24 0.537,1.688 -1.086,-1.198 -2.525,-2.944 -4.06,-4.875 0.355,0.126 0.773,0.197 1.273,0.195 1.762,-0.008 5.873,-2.146 7.07,-3.1 1.344,0.21 2.672,0.457 3.516,0.715 2.301,0.702 4.326,1.131 4.326,1.131 0,0 -4.449,-1.721 -7.615,-2.502 -0.625,-0.971 -3.861,-3.358 -7.32,-1.596 -1.84,0.938 -2.823,1.211 -2.817,2.688 0.002,0.181 0.014,0.359 0.039,0.531 -3.89,-4.985 -7.832,-10.324 -7.832,-10.324 l -1.841,0.853 c 0,0 4.623,5.884 8.498,10.458 -0.264,-0.081 -0.543,-0.138 -0.84,-0.154 -1.475,-0.083 -1.797,0.884 -2.828,2.673 -1.907,3.304 0.203,6.607 1.166,7.363 0.599,3.204 2.05,7.72 2.05,7.72 0,0 -0.31,-2.047 -0.877,-4.384 -0.203,-0.837 -0.369,-2.132 -0.5,-3.449 0.993,-1.086 3.401,-5.168 3.502,-6.951 0.02,-0.35 -0.009,-0.654 -0.058,-0.936 1.08,1.244 1.912,2.194 3.226,3.612 -0.158,-0.031 -0.324,-0.052 -0.494,-0.061 -1.4,-0.078 -1.707,0.84 -2.687,2.539 -1.555,2.699 -0.293,5.396 0.674,6.556 0.47,3.186 2.187,8.522 2.187,8.522 0,0 -0.31,-2.046 -0.879,-4.384 -0.209,-0.862 -0.379,-2.212 -0.51,-3.572 0.62,-0.275 3.497,-4.935 3.604,-6.837 0.016,-0.289 -0.002,-0.545 -0.035,-0.785 0.996,1.051 2.232,2.338 3.816,3.978 -0.314,-0.142 -0.666,-0.227 -1.049,-0.25 -1.328,-0.072 -1.619,0.797 -2.547,2.407 -1.71,2.97 0.18,5.939 1.047,6.625 0.586,3.209 2.073,7.832 2.073,7.832 0,0 -0.311,-2.046 -0.877,-4.384 -0.213,-0.874 -0.385,-2.248 -0.516,-3.627 0.928,-1.077 2.994,-4.611 3.082,-6.176 0.031,-0.564 -0.053,-1.015 -0.209,-1.386 1.266,1.309 2.733,2.821 4.447,4.588 -0.38,-0.265 -0.855,-0.405 -1.379,-0.434 -1.328,-0.075 -1.619,0.796 -2.548,2.405 -1.907,3.309 0.652,6.607 1.293,6.758 0.406,2.477 1.082,5.176 1.082,5.176 0,0 -0.147,-1.741 -0.489,-3.719 -0.078,-0.453 -0.134,-1.073 -0.173,-1.752 0.919,-1.057 3.007,-4.619 3.097,-6.193 0.041,-0.754 -0.111,-1.319 -0.39,-1.735 3.181,3.275 7.177,7.385 12.287,12.635 -0.756,0.819 -1.231,2.117 -0.524,3.297 0.752,1.251 4.281,2.822 5.68,3.203 0.254,0.331 0.576,0.746 0.998,1.289 1.344,1.727 4.041,4.219 4.041,4.219 C 1.959,2.265 1.084,1.159 0,0 m -2.453,-19.501 c 0,0 -1.996,-0.541 -4.07,-0.96 -0.358,-0.779 -3.399,-3.208 -6.657,-1.549 -1.654,0.844 -2.539,1.089 -2.533,2.419 0.006,1.33 0.697,2.404 2.555,2.397 1.685,-0.007 5.76,-2.18 6.533,-2.937 0.26,0.031 0.498,0.066 0.697,0.105 1.842,0.354 3.475,0.525 3.475,0.525 m 0.012,4.067 c 0.037,-0.521 -3.026,-3.272 -6.321,-1.594 -1.564,0.797 -2.398,1.028 -2.392,2.284 0.006,1.256 0.658,2.271 2.412,2.264 1.523,-0.007 5.121,-1.89 6.066,-2.678 0.317,0.01 0.602,0.026 0.828,0.052 1.577,0.177 2.985,0.22 2.985,0.22 0,0 -1.768,-0.332 -3.578,-0.548 m -16.485,6.357 c 0.295,2.042 0.699,3.976 0.699,3.976 0,0 -0.076,-1.642 -0.322,-3.501 -0.023,-0.177 -0.041,-0.387 -0.056,-0.612 0.828,-0.816 3.14,-4.682 3.234,-6.34 0.103,-1.855 -0.936,-2.599 -2.262,-2.675 -1.328,-0.075 -1.619,0.794 -2.547,2.406 -1.871,3.246 0.555,6.482 1.254,6.746 m 4.752,4.349 c 0.002,0 0.002,-0.001 0.004,-0.001 0.111,1.789 0.334,3.515 0.334,3.515 0,0 0.037,-1.408 -0.047,-2.992 -0.012,-0.207 -0.013,-0.459 -0.008,-0.739 0.836,-0.9 2.905,-4.401 2.991,-5.923 0.099,-1.752 -0.883,-2.456 -2.135,-2.526 -1.254,-0.07 -1.529,0.751 -2.406,2.272 -1.848,3.203 0.746,6.407 1.267,6.394 m 20.207,10.882 -56.803,0 c -0.994,0 -1.8,-0.805 -1.8,-1.8 l 0,-56.802 c 0,-0.994 0.806,-1.8 1.8,-1.8 l 56.803,0 c 0.994,0 1.799,0.806 1.799,1.8 l 0,56.802 c 0,0.995 -0.805,1.8 -1.799,1.8"
         id="path26"
         style="fill:#904f75;fill-opacity:1;fill-rule:nonzero;stroke:none" /></g><g
       transform="translate(-59.278006,653.54568)"
       id="g28"><path
         d="m 0,0 c -4.467,0 -8.088,2.356 -8.088,5.264 0,2.907 3.621,5.263 8.088,5.263 4.467,0 10.912,-3.465 10.912,-5.135 C 10.912,3.724 4.467,0 0,0 m -24,-3 c -4.467,0 -8.088,2.357 -8.088,5.264 0,2.907 3.621,5.263 8.088,5.263 4.467,0 10.912,-3.465 10.912,-5.135 C -13.088,0.724 -19.533,-3 -24,-3 m 8.5,24.764 c 4.467,0 10.912,-3.466 10.912,-5.136 0,-1.668 -6.445,-5.391 -10.912,-5.391 -4.467,0 -8.088,2.356 -8.088,5.263 0,2.907 3.621,5.264 8.088,5.264 m 33.166,18.056 -56.803,0 c -0.994,0 -1.8,-0.805 -1.8,-1.799 l 0,-56.803 c 0,-0.994 0.806,-1.8 1.8,-1.8 l 56.803,0 c 0.994,0 1.8,0.806 1.8,1.8 l 0,56.803 c 0,0.994 -0.806,1.799 -1.8,1.799"
         id="path30"
         style="fill:#b18c54;fill-opacity:1;fill-rule:nonzero;stroke:none" /></g><g
       transform="translate(5.2634937,882.87968)"
       id="g56"><path
         d="m 0,0 c -1.08,0 -1.955,-0.875 -1.955,-1.955 0,-1.08 0.875,-1.955 1.955,-1.955 1.078,0 1.953,0.875 1.953,1.955 C 1.953,-0.875 1.078,0 0,0"
         id="path58"
         style="fill:#984b3b;fill-opacity:1;fill-rule:nonzero;stroke:none" /></g><g
       transform="translate(30.546694,775.27168)"
       id="g92"><path
         d="m 0,0 c -2.502,-2.621 -4.768,-1.964 -7.408,-5.831 -1.117,-0.662 -0.235,-8.831 -8.36,-15.521 -8.386,-6.902 -14.312,-8.777 -19.351,-2.898 -4.313,5.032 -4.819,11.003 1.988,19.468 6.777,8.428 13.318,7.37 14.883,8.836 2.65,3.304 2.277,5.766 4.984,8.604 4.957,5.194 11.946,6.571 15.608,3.076 C 6.006,12.238 4.957,5.194 0,0 m 11.063,26.094 -56.803,0 c -0.994,0 -1.801,-0.805 -1.801,-1.8 l 0,-56.802 c 0,-0.994 0.807,-1.8 1.801,-1.8 l 56.803,0 c 0.994,0 1.798,0.806 1.798,1.8 l 0,56.802 c 0,0.995 -0.804,1.8 -1.798,1.8"
         id="path94"
         style="fill:#b3986e;fill-opacity:1;fill-rule:nonzero;stroke:none" /></g><g
       transform="translate(15.663894,764.36788)"
       id="g96"><path
         d="m 0,0 c -1.057,-1.175 -1.383,-2.605 -0.727,-3.195 0.655,-0.589 2.043,-0.115 3.1,1.06 C 3.43,-0.96 3.754,0.47 3.1,1.059 2.443,1.648 1.057,1.174 0,0"
         id="path98"
         style="fill:#b3986e;fill-opacity:1;fill-rule:nonzero;stroke:none" /></g><g
       transform="translate(1.6619937,760.43678)"
       id="g100"><path
         d="m 0,0 c -0.441,0.764 -1.906,0.741 -3.275,-0.049 -1.368,-0.792 -2.12,-2.052 -1.678,-2.815 0.441,-0.762 1.908,-0.74 3.275,0.051 C -0.309,-2.022 0.441,-0.762 0,0"
         id="path102"
         style="fill:#b3986e;fill-opacity:1;fill-rule:nonzero;stroke:none" /></g><g
       transform="translate(28.382694,779.14478)"
       id="g104"><path
         d="M 0,0 C -0.803,-0.892 -1.027,-1.999 -0.5,-2.472 0.025,-2.945 1.102,-2.606 1.904,-1.713 2.707,-0.822 2.932,0.285 2.406,0.758 1.879,1.231 0.803,0.892 0,0"
         id="path106"
         style="fill:#b3986e;fill-opacity:1;fill-rule:nonzero;stroke:none" /></g><g
       transform="translate(30.909994,784.39918)"
       id="g108"><path
         d="m 0,0 c -0.451,-1.112 -0.287,-2.229 0.369,-2.495 0.654,-0.267 1.553,0.418 2.004,1.53 C 2.824,0.146 2.66,1.264 2.006,1.529 1.35,1.796 0.451,1.111 0,0"
         id="path110"
         style="fill:#b3986e;fill-opacity:1;fill-rule:nonzero;stroke:none" /></g><g
       transform="translate(28.722494,781.70138)"
       id="g112"><path
         d="M 0,0 C 0.568,0.784 0.656,1.694 0.193,2.029 -0.27,2.365 -1.107,2.001 -1.676,1.216 -2.246,0.432 -2.332,-0.477 -1.869,-0.813 -1.406,-1.149 -0.57,-0.786 0,0"
         id="path114"
         style="fill:#b3986e;fill-opacity:1;fill-rule:nonzero;stroke:none" /></g><g
       transform="translate(32.159994,787.80838)"
       id="g116"><path
         d="M 0,0 C 0.568,0.784 0.656,1.694 0.193,2.029 -0.27,2.365 -1.107,2.001 -1.676,1.216 -2.246,0.432 -2.332,-0.477 -1.869,-0.813 -1.406,-1.149 -0.57,-0.785 0,0"
         id="path118"
         style="fill:#b3986e;fill-opacity:1;fill-rule:nonzero;stroke:none" /></g><g
       transform="translate(-1.3615063,764.53438)"
       id="g120"><path
         d="M 0,0 C 0.57,0.785 0.656,1.694 0.193,2.029 -0.27,2.365 -1.105,2.001 -1.676,1.217 -2.246,0.432 -2.332,-0.477 -1.869,-0.813 -1.406,-1.149 -0.57,-0.785 0,0"
         id="path122"
         style="fill:#b3986e;fill-opacity:1;fill-rule:nonzero;stroke:none" /></g><g
       transform="translate(15.019394,767.84738)"
       id="g124"><path
         d="M 0,0 C 0.57,0.785 0.656,1.694 0.195,2.029 -0.27,2.365 -1.105,2.001 -1.676,1.217 -2.246,0.432 -2.332,-0.477 -1.869,-0.813 -1.406,-1.149 -0.568,-0.785 0,0"
         id="path126"
         style="fill:#b3986e;fill-opacity:1;fill-rule:nonzero;stroke:none" /></g><g
       transform="translate(9.4724937,757.69698)"
       id="g128"><path
         d="m 0,0 c -1.332,-1.479 -1.703,-3.315 -0.83,-4.1 0.871,-0.783 2.656,-0.221 3.988,1.259 1.33,1.478 1.701,3.314 0.83,4.098 C 3.115,2.042 1.33,1.479 0,0"
         id="path130"
         style="fill:#b3986e;fill-opacity:1;fill-rule:nonzero;stroke:none" /></g><g
       transform="translate(11.652194,764.52958)"
       id="g132"><path
         d="M 0,0 C -0.807,0.915 -2.717,0.55 -4.268,-0.817 -5.82,-2.184 -6.424,-4.034 -5.617,-4.949 -4.813,-5.863 -2.902,-5.498 -1.35,-4.13 0.201,-2.764 0.805,-0.914 0,0"
         id="path134"
         style="fill:#b3986e;fill-opacity:1;fill-rule:nonzero;stroke:none" /></g><g
       transform="translate(0.84359368,755.56758)"
       id="g136"><path
         d="m 0,0 c -1.906,-1.069 -2.943,-2.847 -2.313,-3.972 0.631,-1.125 2.686,-1.172 4.594,-0.102 1.908,1.068 2.944,2.846 2.315,3.97 C 3.965,1.021 1.908,1.068 0,0"
         id="path138"
         style="fill:#b3986e;fill-opacity:1;fill-rule:nonzero;stroke:none" /></g><g
       transform="translate(121.71079,753.12038)"
       id="g140"><path
         d="m 0,0 c -0.471,-0.148 -1.113,-0.305 -1.777,-0.435 -1.475,-1.987 -8.348,-6.461 -13.993,-4.781 -4.228,1.152 -7.324,4.131 -8.373,6.924 -2.453,-0.894 -6.349,-0.062 -9.8,2.921 -3.164,2.71 -5.032,6.421 -5.364,9.365 -2.558,0.291 -5.931,2.823 -8.232,7.209 -3.5,6.43 -2.399,15.618 -0.795,17.228 -0.182,0.333 -0.344,0.694 -0.459,1.072 -0.588,1.771 -1.332,2.613 -1.303,2.63 -0.023,0.009 0.51,3.362 1.149,2.775 0.605,-0.569 0.429,-2.808 0.441,-2.812 -0.033,0.011 -0.262,-0.951 0.469,-2.677 0.103,-0.26 0.205,-0.511 0.308,-0.752 1.608,-0.851 7.668,-5.655 10.143,-10.001 1.607,-3.061 2.578,-6.173 2.729,-8.901 2.402,-0.146 5.168,-1.52 7.781,-3.757 2.611,-2.257 4.586,-4.968 5.465,-7.649 2.263,0.976 5.277,0.969 8.476,0.097 C -9.262,7.26 -4.232,3.445 -2.064,1.408 -1.256,1.238 -0.42,1.217 0.133,1.511 1.623,2.297 2.797,3.157 2.797,3.155 2.814,3.158 1.59,0.483 0,0 m 3.119,48.246 -56.803,0 c -0.994,0 -1.8,-0.806 -1.8,-1.8 l 0,-56.803 c 0,-0.994 0.806,-1.8 1.8,-1.8 l 56.803,0 c 0.994,0 1.801,0.806 1.801,1.8 l 0,56.803 c 0,0.994 -0.807,1.8 -1.801,1.8"
         id="path142"
         style="fill:#8fa15b;fill-opacity:1;fill-rule:nonzero;stroke:none" /></g><g
       transform="translate(107.98229,758.28048)"
       id="g144"><path
         d="m 0,0 c -1.271,0.033 -4.443,3.435 -6.379,0.02 -1.1,-1.777 -0.508,-6.408 4.623,-7.941 7.703,-1.851 8.791,3.585 8.262,5.608 C 5.723,1.453 2.199,-0.217 0,0"
         id="path146"
         style="fill:#8fa15b;fill-opacity:1;fill-rule:nonzero;stroke:none" /></g><g
       transform="translate(92.695194,766.64578)"
       id="g148"><path
         d="m 0,0 c -1.135,0.615 -2.893,5.196 -5.803,2.97 -1.601,-1.116 -2.576,-5.643 1.567,-9.414 6.33,-5.239 9.058,-0.767 9.289,1.33 C 5.635,-1.305 1.924,-1.213 0,0"
         id="path150"
         style="fill:#8fa15b;fill-opacity:1;fill-rule:nonzero;stroke:none" /></g><g
       transform="translate(76.490094,786.20138)"
       id="g152"><path
         d="m 0,0 c -1.85,-0.254 -4.189,-4.111 -1.498,-9.667 4.277,-7.957 8.244,-5.038 9.123,-3.212 1.75,3.265 -1.705,5.126 -3.127,7.205 C 3.625,-4.554 3.418,0.653 0,0"
         id="path154"
         style="fill:#8fa15b;fill-opacity:1;fill-rule:nonzero;stroke:none" /></g><g
       transform="translate(-130.68421,675.52708)"
       id="g156"><path
         d="m 0,0 -2.256,-2.257 c -0.284,-0.284 -0.744,-0.284 -1.028,0 l -1.971,1.971 c -0.284,0.284 -0.284,0.744 0,1.028 l 2.256,2.256 c 0.284,0.283 0.744,0.283 1.028,0 L 0,1.027 C 0.284,0.743 0.284,0.283 0,0 m -2.427,-5.998 -2.257,-2.256 c -0.284,-0.284 -0.744,-0.284 -1.028,0 l -1.971,1.971 c -0.284,0.283 -0.284,0.743 0,1.027 L -5.426,-3 c 0.283,0.284 0.744,0.284 1.028,0 l 1.97,-1.971 c 0.284,-0.283 0.284,-0.744 10e-4,-1.027 m -4.391,-28.72 -5,12 c 0,0 -13.658,-11.468 -19.798,-12.182 -4.358,-0.506 -11.073,6.209 -10.566,10.566 0.714,6.141 11.364,19.116 11.364,19.116 l -9,4.5 13.343,2.374 3.142,-2.571 -3.682,-8.536 1.597,1.597 c 0.284,0.284 0.744,0.284 1.028,0 l 1.971,-1.971 c 0.284,-0.284 0.284,-0.745 0,-1.029 l -2.256,-2.255 c -0.284,-0.285 -0.744,-0.285 -1.029,0 l -1.97,1.97 c -0.017,0.018 -0.03,0.037 -0.045,0.055 l -0.519,-1.205 1.677,-1.678 c 0.285,-0.283 0.285,-0.744 0.001,-1.027 l -2.256,-2.257 c -0.285,-0.284 -0.745,-0.284 -1.029,0 l -0.373,0.373 -0.516,-1.196 0.032,-0.033 c 0.285,-0.285 0.285,-0.745 0.001,-1.029 l -0.862,-0.861 -1.688,-3.915 c 0.08,-0.035 0.156,-0.084 0.222,-0.151 l 1.885,-1.884 1.325,0.57 c -0.14,0.026 -0.274,0.092 -0.383,0.201 l -1.97,1.971 c -0.285,0.283 -0.285,0.744 0,1.027 l 2.256,2.257 c 0.284,0.284 0.744,0.284 1.028,0 l 1.971,-1.971 c 0.284,-0.284 0.284,-0.744 0,-1.028 l -2.12,-2.119 2.762,1.191 0.143,0.143 c 0.177,0.177 0.423,0.244 0.652,0.199 l 1.32,0.57 -0.088,0.088 c -0.283,0.284 -0.283,0.744 0.001,1.028 l 2.256,2.256 c 0.284,0.284 0.744,0.284 1.028,0 l 1.393,-1.393 1.197,0.518 -1.733,1.732 c -0.284,0.283 -0.284,0.744 0,1.027 l 2.256,2.257 c 0.284,0.284 0.745,0.284 1.028,0 l 1.971,-1.971 c 0.284,-0.284 0.284,-0.744 0,-1.028 l -0.878,-0.878 7.532,3.249 2.571,-3.141 -1.192,-15.526 z m -13.431,31.005 1.971,-1.971 c 0.284,-0.285 0.284,-0.744 0,-1.028 l -2.256,-2.257 c -0.284,-0.283 -0.744,-0.283 -1.029,0 l -1.97,1.971 c -0.284,0.284 -0.284,0.744 0,1.028 l 2.256,2.256 c 0.284,0.284 0.744,0.284 1.028,10e-4 m 0.857,1.885 2.256,2.256 c 0.284,0.284 0.744,0.284 1.028,0 l 1.971,-1.971 c 0.284,-0.283 0.284,-0.744 0,-1.028 l -2.256,-2.257 c -0.284,-0.283 -0.744,-0.283 -1.028,0 l -1.971,1.972 c -0.284,0.283 -0.284,0.744 0,1.028 m 4.141,4.141 2.256,2.255 c 0.284,0.285 0.745,0.285 1.028,0 l 1.971,-1.97 c 0.284,-0.284 0.284,-0.744 0,-1.028 l -2.256,-2.256 c -0.284,-0.285 -0.744,-0.285 -1.028,0 l -1.971,1.971 c -0.284,0.283 -0.284,0.743 0,1.028 m 5.755,-6.784 -1.971,1.971 c -0.283,0.284 -0.283,0.744 0,1.028 l 2.257,2.257 c 0.283,0.283 0.744,0.283 1.027,0 l 1.971,-1.971 c 0.284,-0.285 0.284,-0.744 10e-4,-1.028 l -2.257,-2.257 c -0.284,-0.283 -0.744,-0.283 -1.028,0 m -2.328,-5.954 c -0.284,0.284 -0.284,0.744 0,1.029 l 2.257,2.255 c 0.283,0.285 0.744,0.285 1.027,0 l 1.971,-1.97 c 0.284,-0.284 0.284,-0.744 0.001,-1.028 l -2.257,-2.257 c -0.284,-0.284 -0.744,-0.284 -1.028,0 l -1.971,1.971 z m -4.141,-3.113 2.257,2.257 c 0.283,0.283 0.744,0.283 1.027,0 l 1.971,-1.971 c 0.284,-0.285 0.284,-0.744 0,-1.028 l -2.256,-2.257 c -0.284,-0.283 -0.744,-0.283 -1.028,0 l -1.971,1.971 c -0.284,0.285 -0.284,0.744 0,1.028 m 0.357,7.926 2.256,2.256 c 0.284,0.284 0.745,0.284 1.028,0 l 1.971,-1.971 c 0.284,-0.284 0.284,-0.745 0,-1.028 l -2.256,-2.256 c -0.284,-0.285 -0.745,-0.285 -1.028,0 l -1.971,1.97 c -0.284,0.284 -0.284,0.745 0,1.029 m -4.141,-5.169 c -0.284,0.283 -0.284,0.743 0,1.027 l 2.256,2.256 c 0.284,0.284 0.744,0.284 1.028,0 l 1.971,-1.971 c 0.284,-0.283 0.284,-0.744 0,-1.027 l -2.256,-2.257 c -0.284,-0.283 -0.744,-0.283 -1.028,10e-4 l -1.971,1.971 z m -3.027,-7.997 -2.256,-2.257 c -0.284,-0.283 -0.745,-0.283 -1.029,0 l -1.97,1.971 c -0.284,0.284 -0.284,0.744 0,1.028 l 2.256,2.257 c 0.284,0.283 0.744,0.283 1.028,0 l 1.971,-1.971 c 0.284,-0.285 0.284,-0.744 0,-1.028 m -1.114,3.855 c -0.284,0.284 -0.284,0.743 0,1.028 l 2.256,2.256 c 0.284,0.285 0.744,0.284 1.028,0 l 1.971,-1.97 c 0.284,-0.285 0.284,-0.745 0,-1.029 l -2.256,-2.257 c -0.284,-0.283 -0.744,-0.283 -1.028,0 l -1.971,1.972 z m 14.851,19.448 2.256,2.257 c 0.284,0.284 0.744,0.284 1.028,0 l 1.971,-1.97 C -3.5,4.527 -3.5,4.067 -3.784,3.783 L -6.041,1.527 c -0.283,-0.284 -0.744,-0.283 -1.027,0 l -1.971,1.971 c -0.284,0.284 -0.284,0.744 0,1.027 m 15.051,13.314 -56.803,0 c -0.994,0 -1.8,-0.806 -1.8,-1.8 l 0,-56.803 c 0,-0.994 0.806,-1.799 1.8,-1.799 l 56.803,0 c 0.994,0 1.8,0.805 1.8,1.799 l 0,56.803 c 0,0.994 -0.806,1.8 -1.8,1.8"
         id="path158"
         style="fill:#d79f54;fill-opacity:1;fill-rule:nonzero;stroke:none" /></g></g></svg>