<svg id="Layer_1" data-name="Layer 1" xmlns="http://www.w3.org/2000/svg" viewBox="0 0 48 48"><defs><style>.cls-1{fill:#e28156;}.cls-2{fill:#ffbf8e;}.cls-3{fill:#f4a773;}.cls-4{fill:#e79165;}</style></defs><title>nut, nuts, nature, ecology, eco</title><path class="cls-1" d="M24.09.64V2.59h0a5.85,5.85,0,0,1,5.85,5.85v2h1.95v-2a7.8,7.8,0,0,0-7.8-7.8Z"/><path class="cls-1" d="M1.65,24.05V26h0A5.85,5.85,0,0,1,7.5,31.86v2H9.45v-2a7.81,7.81,0,0,0-7.8-7.81Z"/><path class="cls-2" d="M46.52,22.1c0,17.56-15.6,22.44-15.6,22.44a20.64,20.64,0,0,1-3.62-1.67A23.26,23.26,0,0,1,16.85,31a24.92,24.92,0,0,1-1.54-8.88,2,2,0,0,1,0-.25A12,12,0,0,1,15.47,20c1-7,7.56-9.61,15.45-9.61C39.54,10.4,46.52,13.48,46.52,22.1Z"/><path class="cls-3" d="M46.52,22.1H15.31a2,2,0,0,1,0-.25A12,12,0,0,1,15.47,20c1-7,7.56-9.61,15.45-9.61C39.54,10.4,46.52,13.48,46.52,22.1Z"/><path class="cls-4" d="M47.5,18.2a2,2,0,0,1-2,1.95H16.28a2,2,0,0,1-2-1.95A8.69,8.69,0,0,1,16.06,13a8.78,8.78,0,0,1,.85-1c.17-.17.35-.34.54-.5a8.74,8.74,0,0,1,5.66-2.07H38.72a8.82,8.82,0,0,1,5,1.55,8.49,8.49,0,0,1,1.5,1.31A8.78,8.78,0,0,1,47.5,18.2Z"/><path class="cls-3" d="M27.3,42.87a23,23,0,0,1-12-20.77,2,2,0,0,1,0-.25h0a9.44,9.44,0,0,1,6.8,3A18.54,18.54,0,0,1,27.3,42.87Z"/><path class="cls-3" d="M21.65,24.8a3.26,3.26,0,0,1-1,2.36L16.85,31a24.92,24.92,0,0,1-1.54-8.88,2,2,0,0,1,0-.25A12,12,0,0,1,15.47,20a8.28,8.28,0,0,1,5.2,2.39A3.28,3.28,0,0,1,21.65,24.8Z"/><path class="cls-2" d="M6.84,28.27c-4.41,4.4-6.4,9.54-2,14,9,9,19.43,3.48,19.43,3.48s5.48-10.46-3.48-19.43C16.38,21.87,11.24,23.86,6.84,28.27Z"/><path class="cls-4" d="M19.29,23.78a1.34,1.34,0,0,1,.41,1,1.32,1.32,0,0,1-.41,1l-14.94,15a1.42,1.42,0,0,1-2,0A6.33,6.33,0,0,1,.56,37.17a7.38,7.38,0,0,1-.06-.93,4.87,4.87,0,0,1,0-.54,6.31,6.31,0,0,1,1.83-4l8-8A6.42,6.42,0,0,1,13.66,22a6.22,6.22,0,0,1,1.43-.1A6.34,6.34,0,0,1,19.29,23.78Z"/><polygon class="cls-1" points="37.01 9.56 36.43 10.56 35.31 12.51 31.55 19.01 30.9 20.15 28.95 20.15 28.72 20.01 29.31 19.01 30.43 17.06 34.18 10.56 34.84 9.42 36.78 9.42 37.01 9.56"/><path class="cls-1" d="M45.2,12.28,41.31,19l-.66,1.14H38.71L38.48,20l.58-1,1.12-2L43.7,11A8.49,8.49,0,0,1,45.2,12.28Z"/><polygon class="cls-1" points="27.26 9.56 26.67 10.56 25.55 12.51 21.79 19.01 21.14 20.15 19.2 20.15 18.96 20.01 19.55 19.01 20.67 17.06 24.43 10.56 25.08 9.42 27.02 9.42 27.26 9.56"/><polygon class="cls-1" points="32.13 20.01 31.9 20.15 29.96 20.15 29.31 19.01 25.55 12.51 24.43 10.56 23.84 9.56 24.08 9.42 26.02 9.42 26.67 10.56 30.43 17.06 31.55 19.01 32.13 20.01"/><path class="cls-1" d="M22.38,20l-.23.14H20.2L19.55,19l-3.49-6a8.78,8.78,0,0,1,.85-1c.17-.17.35-.34.54-.5l3.22,5.57,1.12,2Z"/><polygon class="cls-1" points="41.89 20.01 41.66 20.15 39.72 20.15 39.06 19.01 35.31 12.51 34.18 10.56 33.6 9.56 33.83 9.42 35.77 9.42 36.43 10.56 40.18 17.06 41.3 19.01 41.89 20.01"/></svg>