<?xml version="1.0" ?><!DOCTYPE svg  PUBLIC '-//W3C//DTD SVG 1.1//EN'  'http://www.w3.org/Graphics/SVG/1.1/DTD/svg11.dtd'><svg aria-labelledby="simpleicons-tripadvisor-icon" enable-background="new 0 0 24 24" height="3.33333in" role="img" style="shape-rendering:geometricPrecision; text-rendering:geometricPrecision; image-rendering:optimizeQuality; fill-rule:evenodd; clip-rule:evenodd" version="1.1" viewBox="0 0 3333 3333" width="3.33333in" xml:space="preserve" xmlns="http://www.w3.org/2000/svg" xmlns:xlink="http://www.w3.org/1999/xlink"><defs><style type="text/css">
   <![CDATA[
    .fil0 {fill:white}
    .fil1 {fill:#488154}
   ]]>
  </style></defs><g id="Layer_x0020_1"><circle class="fil0" cx="1667" cy="1667" r="1667"/><g id="_819756672"><path class="fil1" d="M2554 1465c23,-99 96,-198 96,-198l-329 0c-184,-120 -408,-183 -656,-183 -258,0 -490,64 -673,185l-309 0c0,0 73,97 96,195 -60,83 -95,182 -95,292 0,271 221,492 492,492 155,0 293,-73 384,-185l104 157 106 -159c47,61 108,110 181,143 119,54 253,60 376,15 254,-95 385,-379 291,-633 -17,-46 -39,-86 -66,-122l2 0 0 1zm-260 661c-99,36 -205,32 -301,-12 -67,-31 -123,-80 -163,-141 -16,-25 -31,-51 -41,-80 -12,-32 -18,-66 -21,-99 -6,-69 3,-138 33,-201 44,-96 123,-168 221,-205 204,-75 430,30 505,233 75,203 -29,430 -232,505l-1 0 0 0zm-792 -150c-71,104 -191,173 -326,173 -217,0 -393,-177 -393,-393 0,-217 176,-394 393,-394 217,0 393,177 393,394 0,13 -2,25 -4,39 -6,66 -28,129 -63,182l0 -1 0 0zm-576 -225c0,134 110,243 244,243 134,0 243,-109 243,-243 0,-134 -109,-243 -243,-243 -134,0 -244,109 -244,243l0 0zm987 0c0,134 109,243 244,243 134,0 243,-109 243,-243 0,-134 -109,-243 -243,-243 -134,0 -244,109 -244,243l0 0zm-903 0c0,-88 72,-160 159,-160 87,0 160,72 160,160 0,88 -71,159 -160,159 -89,0 -160,-71 -160,-159l1 0zm986 0c0,-88 71,-160 160,-160 87,0 159,72 159,160 0,88 -72,159 -160,159 -89,0 -160,-71 -160,-159l1 0zm-332 -581c177,0 337,32 477,95 -53,2 -104,11 -156,30 -124,45 -222,136 -276,256 -26,54 -40,111 -45,169 -18,-252 -226,-452 -482,-457 141,-60 303,-93 479,-93l3 0z"/></g></g></svg>